<?xml version="1.0" standalone="no"?>
<!DOCTYPE svg PUBLIC "-//W3C//DTD SVG 20010904//EN"
 "http://www.w3.org/TR/2001/REC-SVG-20010904/DTD/svg10.dtd">
<svg version="1.0" xmlns="http://www.w3.org/2000/svg"
 width="300.000000pt" height="300.000000pt" viewBox="0 0 300.000000 300.000000"
 preserveAspectRatio="xMidYMid meet">
<metadata>
Created by potrace 1.14, written by Peter Selinger 2001-2017
</metadata>
<g transform="translate(0.000000,300.000000) scale(0.100000,-0.100000)"
fill="#000000" stroke="none">
<path d="M1249 2741 c-53 -17 -119 -63 -119 -83 0 -4 23 1 51 12 101 40 226
34 269 -12 22 -24 27 -63 9 -74 -6 -4 -61 -7 -123 -8 -92 -2 -120 -6 -163 -25
-56 -25 -72 -45 -25 -32 35 10 112 7 182 -8 91 -18 104 -19 131 -5 30 15 56
63 67 126 12 60 -1 93 -42 105 -40 12 -201 15 -237 4z"/>
<path d="M1623 2623 c-55 -35 -78 -78 -70 -131 6 -46 34 -89 129 -195 106
-118 112 -135 58 -157 -31 -13 -95 -10 -202 11 -59 11 -72 10 -113 -5 -25 -10
-71 -37 -103 -61 -108 -82 -122 -104 -80 -126 20 -11 25 -9 43 16 27 38 70 81
102 102 36 24 88 17 150 -18 60 -35 66 -53 32 -109 -37 -61 -58 -64 -148 -19
l-63 32 -45 -46 c-65 -64 -46 -81 61 -53 67 17 117 6 185 -41 55 -39 147 -81
156 -71 3 2 -16 44 -41 93 -38 75 -44 94 -40 128 9 59 28 82 107 123 110 58
110 79 -5 214 -108 126 -126 155 -126 207 0 33 8 57 30 89 16 24 28 44 27 44
-2 0 -22 -12 -44 -27z"/>
<path d="M1163 2462 c-13 -2 -23 -6 -23 -10 1 -11 143 -72 168 -72 21 0 89 57
79 66 -2 2 -20 -1 -41 -7 -29 -8 -48 -7 -89 6 -67 21 -68 22 -94 17z"/>
<path d="M1373 1748 c-30 -66 22 -136 113 -152 76 -14 184 -19 184 -7 0 6 -9
11 -20 11 -62 0 -172 68 -207 127 -28 48 -54 55 -70 21z"/>
<path d="M594 1671 c-55 -24 -33 -57 78 -117 85 -47 130 -96 182 -198 27 -54
50 -84 77 -104 45 -31 76 -88 85 -155 4 -26 9 -47 11 -47 6 0 21 17 86 97 32
39 79 85 105 101 60 37 202 112 213 112 5 0 15 -15 23 -34 8 -19 24 -37 36
-41 13 -4 30 -28 46 -63 23 -52 75 -111 99 -112 22 -1 64 -48 90 -100 58 -117
219 -311 315 -380 80 -57 134 -123 154 -185 24 -79 40 -108 83 -156 42 -46 69
-50 84 -11 6 15 26 57 44 94 30 63 32 71 23 120 -13 71 -48 138 -157 304 -145
218 -204 260 -401 288 -48 7 -172 49 -212 73 -18 10 -43 34 -55 52 -18 27 -20
37 -11 61 12 37 40 39 149 11 41 -10 94 -22 119 -25 25 -3 54 -8 65 -10 11 -2
48 -7 83 -11 51 -5 63 -4 68 9 10 25 -47 85 -111 116 -63 32 -96 37 -264 45
-111 5 -173 25 -221 69 -38 36 -50 36 -118 -2 -122 -67 -228 -54 -380 48 -172
115 -329 176 -388 151z"/>
</g>
</svg>
